<?xml version="1.0" encoding="UTF-8" standalone="no"?>
<!-- Created with Inkscape (http://www.inkscape.org/) -->

<svg
   xmlns:dc="http://purl.org/dc/elements/1.1/"
   xmlns:cc="http://creativecommons.org/ns#"
   xmlns:rdf="http://www.w3.org/1999/02/22-rdf-syntax-ns#"
   xmlns:svg="http://www.w3.org/2000/svg"
   xmlns="http://www.w3.org/2000/svg"
   xmlns:xlink="http://www.w3.org/1999/xlink"
   xmlns:sodipodi="http://sodipodi.sourceforge.net/DTD/sodipodi-0.dtd"
   xmlns:inkscape="http://www.inkscape.org/namespaces/inkscape"
   id="svg2"
   version="1.1"
   inkscape:version="0.92+devel unknown"
   width="312"
   height="312"
   viewBox="0 0 292.49999 292.5"
   sodipodi:docname="raccoon.svg"
   inkscape:export-filename="/home/panzi/src/html/teamhooman_badge/racoon.png"
   inkscape:export-xdpi="487.04999"
   inkscape:export-ydpi="487.04999">
  <metadata
     id="metadata8">
    <rdf:RDF>
      <cc:Work
         rdf:about="">
        <dc:format>image/svg+xml</dc:format>
        <dc:type
           rdf:resource="http://purl.org/dc/dcmitype/StillImage" />
        <dc:title></dc:title>
      </cc:Work>
    </rdf:RDF>
  </metadata>
  <defs
     id="defs6">
    <mask
       maskUnits="userSpaceOnUse"
       id="mask4365">
      <ellipse
         style="opacity:1;fill:#ffffff;fill-opacity:1;stroke:none;stroke-width:1.77165353;stroke-linecap:round;stroke-linejoin:miter;stroke-miterlimit:4;stroke-dasharray:none;stroke-opacity:1"
         id="ellipse4367"
         cx="380.44525"
         cy="489.77554"
         rx="40.973591"
         ry="28.456202" />
    </mask>
    <mask
       maskUnits="userSpaceOnUse"
       id="mask4388">
      <path
         style="fill:#ffffff;fill-opacity:1;fill-rule:evenodd;stroke:none;stroke-width:1px;stroke-linecap:butt;stroke-linejoin:miter;stroke-opacity:1"
         d="m 305.42383,356.50781 c 1.94715,18.8039 6.56508,30.43069 19.86133,44.39453 l 17.1914,-21.36328 13.01758,-6.00781 C 340.80707,361.34766 329.79102,357.843 305.42383,356.50781 Z m 149.875,0.83399 c -17.57998,0.22254 -34.49154,1.94744 -50.73633,16.18945 l 13.68555,6.50781 16.68945,20.5293 c 13.46315,-12.23923 18.24728,-28.81765 20.36133,-43.22656 z"
         id="path4390"
         inkscape:connector-curvature="0" />
    </mask>
    <mask
       maskUnits="userSpaceOnUse"
       id="mask4392">
      <path
         style="fill:#ffffff;fill-opacity:1;fill-rule:evenodd;stroke:none;stroke-width:1px;stroke-linecap:butt;stroke-linejoin:miter;stroke-opacity:1"
         d="m 305.42383,356.50781 c 1.94715,18.8039 6.56508,30.43069 19.86133,44.39453 l 17.1914,-21.36328 13.01758,-6.00781 C 340.80707,361.34766 329.79102,357.843 305.42383,356.50781 Z m 149.875,0.83399 c -17.57998,0.22254 -34.49154,1.94744 -50.73633,16.18945 l 13.68555,6.50781 16.68945,20.5293 c 13.46315,-12.23923 18.24728,-28.81765 20.36133,-43.22656 z"
         id="path4394"
         inkscape:connector-curvature="0" />
    </mask>
    <mask
       maskUnits="userSpaceOnUse"
       id="mask4713">
      <path
         style="fill:#ffffff;fill-opacity:1;fill-rule:evenodd;stroke:none;stroke-width:1px;stroke-linecap:butt;stroke-linejoin:miter;stroke-opacity:1"
         d="m 298.81422,509.11712 -23.83905,-10.85739 9.44121,-13.68975 -20.53463,0.70809 7.08091,-8.26106 -5.90076,-0.94412 8.73312,-4.7206 h -17.93829 l 15.57799,-20.77066 -13.92578,-1.88824 16.28608,-11.80151 -8.96915,-5.19266 14.86991,-8.02503 7.78899,-20.06256 4.48458,-2.59634 -10.1493,-8.49708 18.93113,2.5424 -6.50904,-43.05982 8.01113,-7.00974 -10.34771,-2.50348 31.71073,-2.00278 28.70655,6.34214 -2.00279,-5.17385 29.70795,10.34771 29.20724,-9.68012 -0.83449,3.83867 26.03617,-5.34075 33.71351,1.33518 -10.51461,3.17108 9.51322,7.67733 -9.68012,42.22533 19.19334,-2.33658 -8.84563,8.17803 5.50765,3.50487 6.67595,18.02504 14.68707,9.17943 -8.17803,5.34075 15.35467,11.8498 -13.01809,1.33518 15.68846,21.02922 -17.02365,-0.50069 7.34354,4.84005 -5.67455,1.00139 6.50904,8.34493 -19.52713,-0.83449 9.34632,14.01948 -23.1989,10.51461 -31.21003,-5.84145 -9.51322,3.17107 -24.86788,16.35606 -33.59202,-0.1669 -23.48728,-15.18777 -9.68012,-4.67316 z"
         id="path4715"
         inkscape:connector-curvature="0"
         sodipodi:nodetypes="cccccccccccccccccccccccccccccccccccccccccccccccccccccc" />
    </mask>
    <mask
       maskUnits="userSpaceOnUse"
       id="mask4196">
      <ellipse
         style="opacity:1;fill:#ffffff;fill-opacity:1;stroke:none;stroke-width:1;stroke-linecap:round;stroke-linejoin:miter;stroke-miterlimit:4;stroke-dasharray:none;stroke-opacity:1"
         id="ellipse4198"
         cx="242.28499"
         cy="388.5647"
         rx="29.385759"
         ry="13.866774" />
    </mask>
    <mask
       maskUnits="userSpaceOnUse"
       id="mask4192">
      <ellipse
         style="opacity:1;fill:#ffffff;fill-opacity:1;stroke:none;stroke-width:1;stroke-linecap:round;stroke-linejoin:miter;stroke-miterlimit:4;stroke-dasharray:none;stroke-opacity:1"
         id="ellipse4194"
         cx="242.28499"
         cy="388.5647"
         rx="29.385759"
         ry="13.866774"
         transform="rotate(7.2394138)" />
    </mask>
    <mask
       maskUnits="userSpaceOnUse"
       id="mask4188">
      <ellipse
         style="opacity:1;fill:#ffffff;fill-opacity:1;stroke:none;stroke-width:1;stroke-linecap:round;stroke-linejoin:miter;stroke-miterlimit:4;stroke-dasharray:none;stroke-opacity:1"
         id="ellipse4190"
         cx="242.28499"
         cy="388.5647"
         rx="29.385759"
         ry="13.866774"
         transform="rotate(14.941146)" />
    </mask>
    <mask
       maskUnits="userSpaceOnUse"
       id="mask4184">
      <ellipse
         style="opacity:1;fill:#ffffff;fill-opacity:1;stroke:none;stroke-width:1;stroke-linecap:round;stroke-linejoin:miter;stroke-miterlimit:4;stroke-dasharray:none;stroke-opacity:1"
         id="ellipse4186"
         cx="242.28499"
         cy="388.5647"
         rx="29.385759"
         ry="13.866774"
         transform="rotate(-11.260654)" />
    </mask>
    <mask
       maskUnits="userSpaceOnUse"
       id="mask4196-4">
      <ellipse
         style="opacity:1;fill:#ffffff;fill-opacity:1;stroke:none;stroke-width:1;stroke-linecap:round;stroke-linejoin:miter;stroke-miterlimit:4;stroke-dasharray:none;stroke-opacity:1"
         id="ellipse4198-8"
         cx="242.28499"
         cy="388.5647"
         rx="29.385759"
         ry="13.866774" />
    </mask>
    <mask
       maskUnits="userSpaceOnUse"
       id="mask4192-1">
      <ellipse
         style="opacity:1;fill:#ffffff;fill-opacity:1;stroke:none;stroke-width:1;stroke-linecap:round;stroke-linejoin:miter;stroke-miterlimit:4;stroke-dasharray:none;stroke-opacity:1"
         id="ellipse4194-6"
         cx="242.28499"
         cy="388.5647"
         rx="29.385759"
         ry="13.866774"
         transform="rotate(7.2394138)" />
    </mask>
    <mask
       maskUnits="userSpaceOnUse"
       id="mask4188-9">
      <ellipse
         style="opacity:1;fill:#ffffff;fill-opacity:1;stroke:none;stroke-width:1;stroke-linecap:round;stroke-linejoin:miter;stroke-miterlimit:4;stroke-dasharray:none;stroke-opacity:1"
         id="ellipse4190-5"
         cx="242.28499"
         cy="388.5647"
         rx="29.385759"
         ry="13.866774"
         transform="rotate(14.941146)" />
    </mask>
    <mask
       maskUnits="userSpaceOnUse"
       id="mask4184-8">
      <ellipse
         style="opacity:1;fill:#ffffff;fill-opacity:1;stroke:none;stroke-width:1;stroke-linecap:round;stroke-linejoin:miter;stroke-miterlimit:4;stroke-dasharray:none;stroke-opacity:1"
         id="ellipse4186-7"
         cx="242.28499"
         cy="388.5647"
         rx="29.385759"
         ry="13.866774"
         transform="rotate(-11.260654)" />
    </mask>
    <mask
       maskUnits="userSpaceOnUse"
       id="mask4713-3">
      <path
         style="fill:#ffffff;fill-opacity:1;fill-rule:evenodd;stroke:none;stroke-width:1px;stroke-linecap:butt;stroke-linejoin:miter;stroke-opacity:1"
         d="m 298.81422,509.11712 -23.83905,-10.85739 9.44121,-13.68975 -20.53463,0.70809 7.08091,-8.26106 -5.90076,-0.94412 8.73312,-4.7206 h -17.93829 l 15.57799,-20.77066 -13.92578,-1.88824 16.28608,-11.80151 -8.96915,-5.19266 14.86991,-8.02503 7.78899,-20.06256 4.48458,-2.59634 -10.1493,-8.49708 18.93113,2.5424 -6.50904,-43.05982 8.01113,-7.00974 -10.34771,-2.50348 31.71073,-2.00278 28.70655,6.34214 -2.00279,-5.17385 29.70795,10.34771 29.20724,-9.68012 -0.83449,3.83867 26.03617,-5.34075 33.71351,1.33518 -10.51461,3.17108 9.51322,7.67733 -9.68012,42.22533 19.19334,-2.33658 -8.84563,8.17803 5.50765,3.50487 6.67595,18.02504 14.68707,9.17943 -8.17803,5.34075 15.35467,11.8498 -13.01809,1.33518 15.68846,21.02922 -17.02365,-0.50069 7.34354,4.84005 -5.67455,1.00139 6.50904,8.34493 -19.52713,-0.83449 9.34632,14.01948 -23.1989,10.51461 -31.21003,-5.84145 -9.51322,3.17107 -24.86788,16.35606 -33.59202,-0.1669 -23.48728,-15.18777 -9.68012,-4.67316 z"
         id="path4715-6"
         inkscape:connector-curvature="0"
         sodipodi:nodetypes="cccccccccccccccccccccccccccccccccccccccccccccccccccccc" />
    </mask>
    <filter
       inkscape:collect="always"
       style="color-interpolation-filters:sRGB"
       id="filter4765"
       x="-0.096793875"
       width="1.1935877"
       y="-0.15375663"
       height="1.3075134">
      <feGaussianBlur
         inkscape:collect="always"
         stdDeviation="13.669689"
         id="feGaussianBlur4767" />
    </filter>
    <mask
       maskUnits="userSpaceOnUse"
       id="mask4392-7">
      <path
         style="fill:#ffffff;fill-opacity:1;fill-rule:evenodd;stroke:none;stroke-width:1px;stroke-linecap:butt;stroke-linejoin:miter;stroke-opacity:1"
         d="m 305.42383,356.50781 c 1.94715,18.8039 6.56508,30.43069 19.86133,44.39453 l 17.1914,-21.36328 13.01758,-6.00781 C 340.80707,361.34766 329.79102,357.843 305.42383,356.50781 Z m 149.875,0.83399 c -17.57998,0.22254 -34.49154,1.94744 -50.73633,16.18945 l 13.68555,6.50781 16.68945,20.5293 c 13.46315,-12.23923 18.24728,-28.81765 20.36133,-43.22656 z"
         id="path4394-5"
         inkscape:connector-curvature="0" />
    </mask>
    <mask
       maskUnits="userSpaceOnUse"
       id="mask4388-3">
      <path
         style="fill:#ffffff;fill-opacity:1;fill-rule:evenodd;stroke:none;stroke-width:1px;stroke-linecap:butt;stroke-linejoin:miter;stroke-opacity:1"
         d="m 305.42383,356.50781 c 1.94715,18.8039 6.56508,30.43069 19.86133,44.39453 l 17.1914,-21.36328 13.01758,-6.00781 C 340.80707,361.34766 329.79102,357.843 305.42383,356.50781 Z m 149.875,0.83399 c -17.57998,0.22254 -34.49154,1.94744 -50.73633,16.18945 l 13.68555,6.50781 16.68945,20.5293 c 13.46315,-12.23923 18.24728,-28.81765 20.36133,-43.22656 z"
         id="path4390-5"
         inkscape:connector-curvature="0" />
    </mask>
    <mask
       maskUnits="userSpaceOnUse"
       id="mask4365-6">
      <ellipse
         style="opacity:1;fill:#ffffff;fill-opacity:1;stroke:none;stroke-width:1.77165353;stroke-linecap:round;stroke-linejoin:miter;stroke-miterlimit:4;stroke-dasharray:none;stroke-opacity:1"
         id="ellipse4367-2"
         cx="380.44525"
         cy="489.77554"
         rx="40.973591"
         ry="28.456202" />
    </mask>
    <filter
       inkscape:collect="always"
       style="color-interpolation-filters:sRGB"
       id="filter4346"
       x="-0.082232788"
       width="1.1644655"
       y="-0.15728416"
       height="1.3145683">
      <feGaussianBlur
         inkscape:collect="always"
         stdDeviation="3.7297581"
         id="feGaussianBlur4348" />
    </filter>
    <mask
       maskUnits="userSpaceOnUse"
       id="mask4713-3-9">
      <path
         style="fill:#ffffff;fill-opacity:1;fill-rule:evenodd;stroke:none;stroke-width:1px;stroke-linecap:butt;stroke-linejoin:miter;stroke-opacity:1"
         d="m 298.81422,509.11712 -23.83905,-10.85739 9.44121,-13.68975 -20.53463,0.70809 7.08091,-8.26106 -5.90076,-0.94412 8.73312,-4.7206 h -17.93829 l 15.57799,-20.77066 -13.92578,-1.88824 16.28608,-11.80151 -8.96915,-5.19266 14.86991,-8.02503 7.78899,-20.06256 4.48458,-2.59634 -10.1493,-8.49708 18.93113,2.5424 -6.50904,-43.05982 8.01113,-7.00974 -10.34771,-2.50348 31.71073,-2.00278 28.70655,6.34214 -2.00279,-5.17385 29.70795,10.34771 29.20724,-9.68012 -0.83449,3.83867 26.03617,-5.34075 33.71351,1.33518 -10.51461,3.17108 9.51322,7.67733 -9.68012,42.22533 19.19334,-2.33658 -8.84563,8.17803 5.50765,3.50487 6.67595,18.02504 14.68707,9.17943 -8.17803,5.34075 15.35467,11.8498 -13.01809,1.33518 15.68846,21.02922 -17.02365,-0.50069 7.34354,4.84005 -5.67455,1.00139 6.50904,8.34493 -19.52713,-0.83449 9.34632,14.01948 -23.1989,10.51461 -31.21003,-5.84145 -9.51322,3.17107 -24.86788,16.35606 -33.59202,-0.1669 -23.48728,-15.18777 -9.68012,-4.67316 z"
         id="path4715-6-1"
         inkscape:connector-curvature="0"
         sodipodi:nodetypes="cccccccccccccccccccccccccccccccccccccccccccccccccccccc" />
    </mask>
    <mask
       maskUnits="userSpaceOnUse"
       id="mask4392-7-0">
      <path
         style="fill:#ffffff;fill-opacity:1;fill-rule:evenodd;stroke:none;stroke-width:1px;stroke-linecap:butt;stroke-linejoin:miter;stroke-opacity:1"
         d="m 305.42383,356.50781 c 1.94715,18.8039 6.56508,30.43069 19.86133,44.39453 l 17.1914,-21.36328 13.01758,-6.00781 C 340.80707,361.34766 329.79102,357.843 305.42383,356.50781 Z m 149.875,0.83399 c -17.57998,0.22254 -34.49154,1.94744 -50.73633,16.18945 l 13.68555,6.50781 16.68945,20.5293 c 13.46315,-12.23923 18.24728,-28.81765 20.36133,-43.22656 z"
         id="path4394-5-9"
         inkscape:connector-curvature="0" />
    </mask>
    <mask
       maskUnits="userSpaceOnUse"
       id="mask4388-3-3">
      <path
         style="fill:#ffffff;fill-opacity:1;fill-rule:evenodd;stroke:none;stroke-width:1px;stroke-linecap:butt;stroke-linejoin:miter;stroke-opacity:1"
         d="m 305.42383,356.50781 c 1.94715,18.8039 6.56508,30.43069 19.86133,44.39453 l 17.1914,-21.36328 13.01758,-6.00781 C 340.80707,361.34766 329.79102,357.843 305.42383,356.50781 Z m 149.875,0.83399 c -17.57998,0.22254 -34.49154,1.94744 -50.73633,16.18945 l 13.68555,6.50781 16.68945,20.5293 c 13.46315,-12.23923 18.24728,-28.81765 20.36133,-43.22656 z"
         id="path4390-5-6"
         inkscape:connector-curvature="0" />
    </mask>
  </defs>
  <sodipodi:namedview
     pagecolor="#ffffff"
     bordercolor="#666666"
     borderopacity="1"
     objecttolerance="10"
     gridtolerance="10"
     guidetolerance="10"
     inkscape:pageopacity="0"
     inkscape:pageshadow="2"
     inkscape:window-width="1920"
     inkscape:window-height="1018"
     id="namedview4"
     showgrid="false"
     inkscape:zoom="1.6504597"
     inkscape:cx="173.61511"
     inkscape:cy="155.30243"
     inkscape:window-x="0"
     inkscape:window-y="0"
     inkscape:window-maximized="1"
     inkscape:current-layer="layer4"
     fit-margin-top="5"
     fit-margin-left="2"
     fit-margin-right="2"
     fit-margin-bottom="5"
     inkscape:document-rotation="0"
     inkscape:snap-global="false"
     borderlayer="true" />
  <g
     inkscape:groupmode="layer"
     id="layer1"
     inkscape:label="Racoon"
     transform="translate(0,-1.7421627)">
    <path
       style="fill:#7d6e63;fill-opacity:1;fill-rule:evenodd;stroke:none;stroke-width:1px;stroke-linecap:butt;stroke-linejoin:miter;stroke-opacity:1"
       d="m 52.0018,276.26756 -23.839052,-10.85739 9.441212,-13.68975 -20.534636,0.70809 7.080911,-8.26106 -5.90076,-0.94412 8.733123,-4.7206 H 9.0443045 l 15.5779905,-20.77066 -13.92578,-1.88824 16.286083,-11.80151 -8.969153,-5.19266 14.869916,-8.02503 7.788989,-20.06256 4.48458,-2.59634 -10.1493,-8.49708 18.93114,2.5424 -6.50905,-43.05982 8.01113,-7.00974 -10.34771,-2.50348 31.71074,-2.00278 28.70653,6.34214 -2.00279,-5.17385 29.70795,10.34771 29.20724,-9.68012 -0.83448,3.83867 26.03616,-5.34075 33.71351,1.33518 -10.5146,3.17108 9.51321,7.67733 -9.68012,42.22533 19.19335,-2.33658 -8.84563,8.17803 5.50764,3.50487 6.67595,18.02504 14.68708,9.17943 -8.17804,5.34075 15.35467,11.8498 -13.01808,1.33518 15.68845,21.02922 -17.02365,-0.50069 7.34354,4.84005 -5.67455,1.00139 6.50904,8.34493 -19.52712,-0.83449 9.34631,14.01948 -23.1989,10.51461 -31.21003,-5.84145 -9.51321,3.17107 -24.86788,16.35606 -33.59202,-0.1669 -23.48728,-15.18777 -9.68011,-4.67316 z"
       id="path3338"
       inkscape:connector-curvature="0"
       sodipodi:nodetypes="cccccccccccccccccccccccccccccccccccccccccccccccccccccc" />
    <ellipse
       style="opacity:1;fill:#af9a8c;fill-opacity:1;stroke:none;stroke-width:1.77165353;stroke-linecap:round;stroke-linejoin:miter;stroke-miterlimit:4;stroke-dasharray:none;stroke-opacity:1;filter:url(#filter4765)"
       id="path4396"
       cx="377.17624"
       cy="369.62326"
       rx="163.80496"
       ry="101.02093"
       mask="url(#mask4713-3)"
       transform="translate(-246.81242,-232.84956)" />
    <path
       style="fill:#7d6e64;fill-opacity:1;fill-rule:evenodd;stroke:none;stroke-width:1px;stroke-linecap:butt;stroke-linejoin:miter;stroke-opacity:1"
       d="m 199.3074,171.39047 15.52157,-8.51182 12.68429,-36.05009 -6.00835,7.00974 v -17.02365 l -3.83866,5.67455 -4.84007,22.8651 z"
       id="path3340"
       inkscape:connector-curvature="0" />
    <path
       style="fill:#7d6e64;fill-opacity:1;fill-rule:evenodd;stroke:none;stroke-width:1px;stroke-linecap:butt;stroke-linejoin:miter;stroke-opacity:1"
       d="m 66.62305,171.39047 -15.68846,-9.17942 -11.516,-35.21559 5.50766,6.34215 0.16689,-16.35606 4.00557,6.00835 4.00556,21.02921 z"
       id="path3342"
       inkscape:connector-curvature="0"
       sodipodi:nodetypes="cccccccc" />
    <path
       style="fill:#402a29;fill-opacity:1;fill-rule:evenodd;stroke:none;stroke-width:1px;stroke-linecap:butt;stroke-linejoin:miter;stroke-opacity:1"
       d="m 49.26561,261.6826 84.95135,13.85257 83.28237,-14.01948 -9.68011,-11.3491 20.52853,-18.19194 -29.87485,-9.17942 3.67177,-12.35049 -22.0306,-4.33936 -5.50766,-6.34215 -7.34354,4.84006 -9.68012,-4.17247 -13.01807,10.84841 -11.18222,-53.24064 -11.516,52.90684 -12.68429,-10.51461 -9.01251,4.17247 -7.84423,-4.84006 -6.67594,6.50904 -20.86232,4.84006 3.50487,11.516 -30.04174,10.01391 21.19612,17.35745 z"
       id="path3363"
       inkscape:connector-curvature="0"
       sodipodi:nodetypes="ccccccccccccccccccccccc" />
    <ellipse
       style="opacity:1;fill:#ffffff;fill-opacity:1;stroke:none;stroke-width:1.77165353;stroke-linecap:round;stroke-linejoin:miter;stroke-miterlimit:4;stroke-dasharray:none;stroke-opacity:1"
       id="path4167"
       cx="133.63281"
       cy="256.92599"
       rx="40.973591"
       ry="28.456202" />
    <path
       style="fill:#734c49;fill-opacity:1;fill-rule:evenodd;stroke:none;stroke-width:1px;stroke-linecap:butt;stroke-linejoin:miter;stroke-opacity:1"
       d="m 78.47286,168.0525 17.19055,-21.36301 13.01808,-6.00835 C 93.99443,128.49755 82.97912,124.99268 58.61193,123.65749 c 1.94715,18.8039 6.56469,30.43117 19.86093,44.39501 z"
       id="path4169"
       inkscape:connector-curvature="0"
       sodipodi:nodetypes="ccccc" />
    <path
       style="fill:#402a29;fill-opacity:1;fill-rule:evenodd;stroke:none;stroke-width:1px;stroke-linecap:butt;stroke-linejoin:miter;stroke-opacity:1"
       d="m 343.31031,381.70873 c -7.6217,-10.90404 -22.58694,-21.97497 -38.88736,-18.19194 l -2.00278,-11.8498 33.71351,0.3338 26.36997,22.3644 z"
       id="path4171"
       inkscape:connector-curvature="0"
       sodipodi:nodetypes="cccccc"
       mask="url(#mask4392-7)"
       transform="translate(-246.81242,-232.84956)" />
    <path
       style="fill:#734c49;fill-opacity:1;fill-rule:evenodd;stroke:none;stroke-width:1px;stroke-linecap:butt;stroke-linejoin:miter;stroke-opacity:1"
       d="m 157.74967,140.68114 13.68567,6.50905 16.68986,20.52852 c 13.46316,-12.23923 18.24757,-28.81782 20.36162,-43.22673 -17.57998,0.22254 -34.49237,1.94715 -50.73715,16.18916 z"
       id="path4173"
       inkscape:connector-curvature="0"
       sodipodi:nodetypes="ccccc" />
    <path
       style="fill:#402a29;fill-opacity:1;fill-rule:evenodd;stroke:none;stroke-width:1px;stroke-linecap:butt;stroke-linejoin:miter;stroke-opacity:1"
       d="m 416.57878,381.04114 c 13.57441,-14.24201 18.13631,-17.96941 39.72185,-18.69264 l 1.00139,-11.3491 -34.548,0.66759 -28.03895,23.86649 z"
       id="path4175"
       inkscape:connector-curvature="0"
       sodipodi:nodetypes="cccccc"
       mask="url(#mask4388-3)"
       transform="translate(-246.81242,-232.84956)" />
    <circle
       style="opacity:1;fill:#ffffff;fill-opacity:1;stroke:none;stroke-width:1.77165353;stroke-linecap:round;stroke-linejoin:miter;stroke-miterlimit:4;stroke-dasharray:none;stroke-opacity:1"
       id="path4177"
       cx="99.835846"
       cy="215.45166"
       r="8.0111303" />
    <circle
       style="opacity:1;fill:#391a1b;fill-opacity:1;stroke:none;stroke-width:1.77165353;stroke-linecap:round;stroke-linejoin:miter;stroke-miterlimit:4;stroke-dasharray:none;stroke-opacity:1"
       id="path4179"
       cx="102.0401"
       cy="214.91641"
       r="5.9248986" />
    <circle
       style="opacity:1;fill:#ffffff;fill-opacity:1;stroke:none;stroke-width:1.77165353;stroke-linecap:round;stroke-linejoin:miter;stroke-miterlimit:4;stroke-dasharray:none;stroke-opacity:1"
       id="path4181"
       cx="102.75658"
       cy="216.0358"
       r="2.7538261" />
    <circle
       style="opacity:1;fill:#ffffff;fill-opacity:1;stroke:none;stroke-width:1.77165353;stroke-linecap:round;stroke-linejoin:miter;stroke-miterlimit:4;stroke-dasharray:none;stroke-opacity:1"
       id="path4177-1"
       cx="167.09599"
       cy="215.78551"
       r="8.0111303" />
    <circle
       style="opacity:1;fill:#391a1b;fill-opacity:1;stroke:none;stroke-width:1.77165353;stroke-linecap:round;stroke-linejoin:miter;stroke-miterlimit:4;stroke-dasharray:none;stroke-opacity:1"
       id="path4179-3"
       cx="164.85718"
       cy="215.11786"
       r="5.9248986" />
    <ellipse
       style="opacity:1;fill:#e6dbd4;fill-opacity:1;stroke:none;stroke-width:1.77165353;stroke-linecap:round;stroke-linejoin:miter;stroke-miterlimit:4;stroke-dasharray:none;stroke-opacity:1;filter:url(#filter4346)"
       id="path4167-9"
       cx="379.77258"
       cy="466.86771"
       rx="54.427311"
       ry="28.456202"
       mask="url(#mask4365-6)"
       transform="translate(-246.81242,-232.84956)" />
    <circle
       style="opacity:1;fill:#ffffff;fill-opacity:1;stroke:none;stroke-width:1.77165353;stroke-linecap:round;stroke-linejoin:miter;stroke-miterlimit:4;stroke-dasharray:none;stroke-opacity:1"
       id="path4181-8"
       cx="163.92487"
       cy="216.11926"
       r="2.7538261" />
    <ellipse
       style="opacity:1;fill:#000000;fill-opacity:1;stroke:none;stroke-width:1.77165353;stroke-linecap:round;stroke-linejoin:miter;stroke-miterlimit:4;stroke-dasharray:none;stroke-opacity:1"
       id="path3365"
       cx="133.38245"
       cy="266.43921"
       rx="16.189159"
       ry="11.766348" />
  </g>
  <g
     inkscape:groupmode="layer"
     id="layer2"
     inkscape:label="Hat"
     style="display:inline"
     transform="translate(0,-1.7421627)">
    <image
       sodipodi:absref="/home/panzi/src/cook_serve_hoomans/patch2/icon/hat.png"
       xlink:href="hat.png"
       y="8.0400658"
       x="18.634405"
       width="271.56146"
       height="215.13312"
       preserveAspectRatio="none"
       id="image163" />
  </g>
  <g
     inkscape:groupmode="layer"
     id="layer3"
     inkscape:label="Ears"
     style="display:inline"
     transform="translate(0,-1.7421627)">
    <path
       style="fill:#af9a8c;fill-opacity:1;fill-rule:evenodd;stroke:none;stroke-width:1px;stroke-linecap:butt;stroke-linejoin:miter;stroke-opacity:1"
       d="m 144.51643,157.17715 -21.3569,1.37897 -15.04218,6.79307 -29.6419,24.47827 -30.17642,3.79819 2.53054,-18.73622 0.53108,-13.85025 -3.93093,-41.88795 8.01113,-7.00974 -10.34771,-2.50348 31.71074,-2.00278 26.12841,10.09214 -2.47154,-5.17385 33.69231,18.31646 28.73849,-16.94575 -0.36573,3.83867 25.09867,-9.79387 33.71351,1.33518 -10.51461,3.17108 9.51322,7.67733 -6.16451,42.69408 0.0584,7.93076 4.94569,14.47719 6.61926,14.56211 -58.56316,-16.70271 -13.03373,-23.07406 z"
       id="path3338-9"
       inkscape:connector-curvature="0"
       sodipodi:nodetypes="ccccccccccccccccccccccccccc" />
    <path
       style="fill:#7d6e64;fill-opacity:1;fill-rule:evenodd;stroke:none;stroke-width:1px;stroke-linecap:butt;stroke-linejoin:miter;stroke-opacity:1"
       d="m 199.3074,171.39047 15.52157,-8.51182 12.68429,-36.05009 -6.00835,7.00974 v -17.02365 l -3.83865,5.67455 -4.84008,22.8651 z"
       id="path3340-6"
       inkscape:connector-curvature="0" />
    <path
       style="fill:#7d6e64;fill-opacity:1;fill-rule:evenodd;stroke:none;stroke-width:1px;stroke-linecap:butt;stroke-linejoin:miter;stroke-opacity:1"
       d="m 66.62305,171.39047 -15.68846,-9.17942 -11.516,-35.21559 5.50766,6.34215 0.16689,-16.35606 4.00557,6.00835 4.00556,21.02921 z"
       id="path3342-2"
       inkscape:connector-curvature="0"
       sodipodi:nodetypes="cccccccc" />
    <path
       style="fill:#734c49;fill-opacity:1;fill-rule:evenodd;stroke:none;stroke-width:1px;stroke-linecap:butt;stroke-linejoin:miter;stroke-opacity:1"
       d="m 78.47286,168.0525 17.19055,-21.36301 13.01808,-6.00835 C 93.99443,128.49755 82.97912,124.99268 58.61193,123.65749 c 1.94715,18.8039 6.5647,30.43117 19.86093,44.39501 z"
       id="path4169-6"
       inkscape:connector-curvature="0"
       sodipodi:nodetypes="ccccc" />
    <path
       style="fill:#402a29;fill-opacity:1;fill-rule:evenodd;stroke:none;stroke-width:1px;stroke-linecap:butt;stroke-linejoin:miter;stroke-opacity:1"
       d="m 343.31031,381.70873 c -7.6217,-10.90404 -22.58694,-21.97497 -38.88736,-18.19194 l -2.00278,-11.8498 33.71351,0.3338 26.36997,22.3644 z"
       id="path4171-1"
       inkscape:connector-curvature="0"
       sodipodi:nodetypes="cccccc"
       mask="url(#mask4392-7-0)"
       transform="translate(-246.81242,-232.84956)" />
    <path
       style="fill:#734c49;fill-opacity:1;fill-rule:evenodd;stroke:none;stroke-width:1px;stroke-linecap:butt;stroke-linejoin:miter;stroke-opacity:1"
       d="m 157.74968,140.68114 13.68566,6.50905 16.68986,20.52852 c 13.46317,-12.23923 18.24757,-28.81782 20.36162,-43.22673 -17.57998,0.22254 -34.49237,1.94715 -50.73714,16.18916 z"
       id="path4173-8"
       inkscape:connector-curvature="0"
       sodipodi:nodetypes="ccccc" />
    <path
       style="fill:#402a29;fill-opacity:1;fill-rule:evenodd;stroke:none;stroke-width:1px;stroke-linecap:butt;stroke-linejoin:miter;stroke-opacity:1"
       d="m 416.57878,381.04114 c 13.57441,-14.24201 18.13631,-17.96941 39.72185,-18.69264 l 1.00139,-11.3491 -34.548,0.66759 -28.03895,23.86649 z"
       id="path4175-7"
       inkscape:connector-curvature="0"
       sodipodi:nodetypes="cccccc"
       mask="url(#mask4388-3-3)"
       transform="translate(-246.81242,-232.84956)" />
  </g>
</svg>
